<?xml version="1.0" encoding="UTF-8" standalone="no"?>
<!-- Created with Inkscape (http://www.inkscape.org/) -->

<svg
   xmlns:osb="http://www.openswatchbook.org/uri/2009/osb"
   xmlns:dc="http://purl.org/dc/elements/1.1/"
   xmlns:cc="http://creativecommons.org/ns#"
   xmlns:rdf="http://www.w3.org/1999/02/22-rdf-syntax-ns#"
   xmlns:svg="http://www.w3.org/2000/svg"
   xmlns="http://www.w3.org/2000/svg"
   xmlns:xlink="http://www.w3.org/1999/xlink"
   xmlns:sodipodi="http://sodipodi.sourceforge.net/DTD/sodipodi-0.dtd"
   xmlns:inkscape="http://www.inkscape.org/namespaces/inkscape"
   sodipodi:docname="codeigniter-four-in-flam-orange-red.svg"
   inkscape:version="0.92.3 (2405546, 2018-03-11)"
   id="svg8"
   version="1.1"
   viewBox="0 0 1000 1000"
   height="1000mm"
   width="1000mm">
  <sodipodi:namedview
     inkscape:snap-grids="true"
     inkscape:window-maximized="1"
     inkscape:window-y="0"
     inkscape:window-x="1987"
     inkscape:window-height="1013"
     inkscape:window-width="1613"
     inkscape:pagecheckerboard="true"
     units="mm"
     showgrid="true"
     inkscape:current-layer="layer4"
     inkscape:document-units="mm"
     inkscape:cy="1556.7795"
     inkscape:cx="1816.3451"
     inkscape:zoom="0.50946948"
     inkscape:pageshadow="2"
     inkscape:pageopacity="0.71372549"
     borderopacity="1.0"
     bordercolor="#666666"
     pagecolor="#ffffff"
     id="base">
    <inkscape:grid
       units="mm"
       empspacing="4"
       spacingy="25"
       spacingx="25"
       id="grid3713"
       type="xygrid"
       dotted="false"
       empcolor="#1e1e1e"
       empopacity="0.25098039" />
    <inkscape:grid
       type="xygrid"
       id="grid1405"
       dotted="false"
       spacingx="5"
       spacingy="5"
       enabled="true"
       units="mm" />
  </sodipodi:namedview>
  <defs
     id="defs2">
    <linearGradient
       inkscape:collect="always"
       id="linearGradient1281">
      <stop
         style="stop-color:#ff0000;stop-opacity:1;"
         offset="0"
         id="stop1277" />
      <stop
         style="stop-color:#ff9c00;stop-opacity:1"
         offset="1"
         id="stop1279" />
    </linearGradient>
    <linearGradient
       id="linearGradient1866"
       osb:paint="gradient">
      <stop
         style="stop-color:#000000;stop-opacity:1;"
         offset="0"
         id="stop1862" />
      <stop
         style="stop-color:#000000;stop-opacity:0;"
         offset="1"
         id="stop1864" />
    </linearGradient>
    <linearGradient
       inkscape:collect="always"
       xlink:href="#linearGradient1281"
       id="linearGradient1283"
       x1="500"
       y1="125"
       x2="350"
       y2="850"
       gradientUnits="userSpaceOnUse" />
  </defs>
  <metadata
     id="metadata5">
    <rdf:RDF>
      <cc:Work
         rdf:about="">
        <dc:format>image/svg+xml</dc:format>
        <dc:type
           rdf:resource="http://purl.org/dc/dcmitype/StillImage" />
        <dc:title></dc:title>
      </cc:Work>
    </rdf:RDF>
  </metadata>
  <g
     id="layer1"
     inkscape:groupmode="layer"
     inkscape:label="triangle-thin"
     style="display:none">
    <path
       style="stroke-linejoin:miter;stroke-opacity:1;stroke:#000000;stroke-linecap:butt;stroke-width:0.370188933945;display:inline;fill:none"
       d="M501.0 0.0C463.0 0.0 428.0 21.0 411.0 55.0C411.0 55.0 11.0 855.0 11.0 855.0C-5.0 886.0 -3.0 923.0 15.0 953.0C33.0 982.0 65.0 1000.0 100.0 1000.0C100.0 1000.0 900.0 1000.0 900.0 1000.0C935.0 1000.0 967.0 982.0 985.0 953.0C1003.0 923.0 1005.0 886.0 989.0 855.0C989.0 855.0 589.0 55.0 589.0 55.0C573.0 22.0 538.0 0.0 501.0 0.0C501.0 0.0 501.0 0.0 501.0 0.0M500.0 50.0C519.0 50.0 536.0 61.0 545.0 78.0C545.0 78.0 945.0 878.0 945.0 878.0C952.0 893.0 952.0 912.0 943.0 926.0C933.0 941.0 917.0 950.0 900.0 950.0C900.0 950.0 100.0 950.0 100.0 950.0C83.0 950.0 67.0 941.0 57.0 926.0C48.0 912.0 48.0 893.0 55.0 878.0C55.0 878.0 455.0 78.0 455.0 78.0C464.0 61.0 481.0 50.0 500.0 50.0C500.0 50.0 500.0 50.0 500.0 50.0"
       id="path2981" />
  </g>
  <g
     style="display:none"
     inkscape:label="triangle-normal"
     inkscape:groupmode="layer"
     id="g818">
    <path
       id="path816"
       d="M501.0 0.0C444.0 0.0 391.0 32.0 366.0 83.0C366.0 83.0 16.0 783.0 16.0 783.0C-7.0 829.0 -5.0 885.0 22.0 929.0C50.0 973.0 98.0 1000.0 150.0 1000.0C150.0 1000.0 850.0 1000.0 850.0 1000.0C902.0 1000.0 950.0 973.0 978.0 929.0C1005.0 885.0 1007.0 829.0 984.0 783.0C984.0 783.0 634.0 83.0 634.0 83.0C609.0 32.0 557.0 0.0 501.0 0.0C501.0 0.0 501.0 0.0 501.0 0.0M500.0 100.0C519.0 100.0 536.0 111.0 545.0 128.0C545.0 128.0 895.0 828.0 895.0 828.0C902.0 843.0 902.0 862.0 893.0 876.0C883.0 891.0 867.0 900.0 850.0 900.0C850.0 900.0 150.0 900.0 150.0 900.0C133.0 900.0 117.0 891.0 107.0 876.0C98.0 862.0 98.0 843.0 105.0 828.0C105.0 828.0 455.0 128.0 455.0 128.0C464.0 111.0 481.0 100.0 500.0 100.0C500.0 100.0 500.0 100.0 500.0 100.0"
       style="stroke-linejoin:miter;stroke-opacity:1;stroke:#000000;stroke-linecap:butt;stroke-width:0.370188933945;display:inline;fill:none" />
  </g>
  <g
     id="g822"
     inkscape:groupmode="layer"
     inkscape:label="triangle-wide"
     style="display:none">
    <path
       style="stroke-linejoin:miter;stroke-opacity:1;stroke:#000000;stroke-linecap:butt;stroke-width:0.370188933945;fill:none"
       d="M501.0 0.0C425.0 0.0 355.0 42.0 321.0 111.0C321.0 111.0 21.0 711.0 21.0 711.0C-10.0 773.0 -7.0 846.0 30.0 905.0C66.0 964.0 131.0 1000.0 200.0 1000.0C200.0 1000.0 800.0 1000.0 800.0 1000.0C869.0 1000.0 934.0 964.0 970.0 905.0C1007.0 846.0 1010.0 773.0 979.0 711.0C979.0 711.0 679.0 111.0 679.0 111.0C645.0 43.0 577.0 1.0 501.0 0.0C501.0 0.0 501.0 0.0 501.0 0.0M500.0 150.0C519.0 150.0 536.0 161.0 545.0 178.0C545.0 178.0 845.0 778.0 845.0 778.0C852.0 793.0 852.0 812.0 843.0 826.0C833.0 841.0 817.0 850.0 800.0 850.0C800.0 850.0 200.0 850.0 200.0 850.0C183.0 850.0 167.0 841.0 157.0 826.0C148.0 812.0 148.0 793.0 155.0 778.0C155.0 778.0 455.0 178.0 455.0 178.0C464.0 161.0 481.0 150.0 500.0 150.0C500.0 150.0 500.0 150.0 500.0 150.0"
       id="path820" />
  </g>
  <g
     style="display:none"
     inkscape:label="equilateral-thin"
     inkscape:groupmode="layer"
     id="g826">
    <path
       id="path824"
       d="M495.0 50.0C461.0 52.0 430.0 71.0 413.0 100.0C413.0 100.0 13.0 800.0 13.0 800.0C-5.0 831.0 -5.0 869.0 13.0 900.0C31.0 931.0 64.0 950.0 99.0 950.0C99.0 950.0 899.0 950.0 899.0 950.0C935.0 950.0 968.0 931.0 985.0 900.0C1003.0 869.0 1003.0 831.0 985.0 800.0C985.0 800.0 585.0 100.0 585.0 100.0C566.0 67.0 531.0 48.0 493.0 50.0C493.0 50.0 493.0 50.0 493.0 50.0M495.0 100.0C514.0 99.0 531.0 109.0 541.0 125.0C541.0 125.0 941.0 825.0 941.0 825.0C950.0 840.0 950.0 859.0 941.0 875.0C932.0 890.0 916.0 900.0 898.0 900.0C898.0 900.0 98.0 900.0 98.0 900.0C80.0 900.0 64.0 891.0 55.0 875.0C46.0 860.0 46.0 841.0 55.0 825.0C55.0 825.0 455.0 125.0 455.0 125.0C463.0 110.0 479.0 101.0 496.0 100.0C496.0 100.0 496.0 100.0 496.0 100.0C496.0 100.0 496.0 100.0 496.0 100.0"
       style="stroke-linejoin:miter;stroke-opacity:1;stroke:#000000;stroke-linecap:butt;stroke-width:0.370188933945;fill:none" />
  </g>
  <g
     id="g830"
     inkscape:groupmode="layer"
     inkscape:label="equilateral-normal"
     style="display:none">
    <path
       style="stroke-linejoin:miter;stroke-opacity:1;stroke:#000000;stroke-linecap:butt;stroke-width:0.370188933945;fill:none"
       d="M506.0 54.0C450.0 52.0 398.0 81.0 370.0 129.0C370.0 129.0 21.0 724.0 21.0 724.0C-6.0 771.0 -7.0 828.0 20.0 875.0C47.0 922.0 97.0 951.0 151.0 951.0C151.0 951.0 851.0 951.0 851.0 951.0C905.0 951.0 955.0 922.0 982.0 875.0C1009.0 828.0 1008.0 771.0 981.0 724.0C981.0 724.0 630.0 129.0 630.0 129.0C604.0 85.0 557.0 57.0 506.0 55.0C506.0 55.0 506.0 55.0 506.0 55.0M502.0 155.0C519.0 156.0 534.0 165.0 543.0 179.0C543.0 179.0 894.0 774.0 894.0 774.0C903.0 789.0 903.0 808.0 894.0 824.0C885.0 839.0 869.0 849.0 851.0 849.0C851.0 849.0 151.0 849.0 151.0 849.0C133.0 849.0 117.0 840.0 108.0 824.0C99.0 809.0 99.0 790.0 108.0 774.0C108.0 774.0 457.0 179.0 457.0 179.0C466.0 163.0 483.0 154.0 502.0 155.0C502.0 155.0 502.0 155.0 502.0 155.0"
       id="path828" />
  </g>
  <g
     style="display:none"
     inkscape:label="equilateral-wide"
     inkscape:groupmode="layer"
     id="g834">
    <path
       id="path832"
       d="M494.0 25.0C423.0 27.0 358.0 67.0 324.0 129.0C324.0 129.0 24.0 679.0 24.0 679.0C-9.0 741.0 -8.0 816.0 28.0 877.0C64.0 938.0 129.0 975.0 200.0 975.0C200.0 975.0 800.0 975.0 800.0 975.0C871.0 975.0 936.0 938.0 972.0 877.0C1008.0 816.0 1009.0 741.0 976.0 679.0C976.0 679.0 676.0 129.0 676.0 129.0C640.0 63.0 569.0 23.0 494.0 25.0C494.0 25.0 494.0 25.0 494.0 25.0M499.0 175.0C517.0 174.0 535.0 185.0 544.0 201.0C544.0 201.0 844.0 751.0 844.0 751.0C852.0 767.0 852.0 785.0 843.0 801.0C834.0 816.0 818.0 825.0 800.0 825.0C800.0 825.0 200.0 825.0 200.0 825.0C182.0 825.0 166.0 816.0 157.0 801.0C148.0 785.0 148.0 767.0 156.0 751.0C156.0 751.0 456.0 201.0 456.0 201.0C465.0 185.0 481.0 176.0 499.0 175.0C499.0 175.0 499.0 175.0 499.0 175.0"
       style="stroke-linejoin:miter;stroke-opacity:1;stroke:#000000;stroke-linecap:butt;stroke-width:0.370188933945;fill:none" />
  </g>
  <g
     id="g838"
     inkscape:groupmode="layer"
     inkscape:label="circle-thin"
     style="display:none">
    <path
       inkscape:connector-curvature="0"
       style="fill:none;stroke:#000000;stroke-width:0.37018892;stroke-linecap:butt;stroke-linejoin:miter;stroke-opacity:1"
       d="M 500,0 C 367,0 239.50134,52.498663 146,146 C 52.498663,239.50134 0,367 0,500 C 0,633 53,760 146,854 C 240,947 367,1000 500,1000 C 633,1000 760,947 854,854 C 947,760 1000,633 1000,500 C 1000,367 947,240 854,146 C 760,53 633,0 500,0 C 500,0 500,0 500,0 M 500,50 C 749,50 950,251 950,500 C 950,749 749,950 500,950 C 251,950 50,749 50,500 C 50,251 251,50 500,50 C 500,50 500,50 500,50"
       id="path836" />
  </g>
  <g
     style="display:none"
     inkscape:label="circle-normal"
     inkscape:groupmode="layer"
     id="g842">
    <path
       inkscape:connector-curvature="0"
       id="path840"
       d="M 500,0 C 367,0 240,53 146,146 C 53,240 0,367 0,500 C 0,633 53,760 146,854 C 240,948 367,1000 500,1000 C 633,1000 760,947 854,854 C 947,760 1000,633 1000,500 C 1000,367 947,240 854,146 C 760,53 633,0 500,0 C 500,0 500,0 500,0 M 500,100 C 606,100 708,142 783,217 C 858,292 900,394 900,500 C 900,606 858,708 783,783 C 708,858 606,900 500,900 C 394,900 292,858 217,783 C 142,708 100,606 100,500 C 100,394 142,292 217,217 C 292,142 394,100 500,100 C 500,100 500,100 500,100"
       style="display:inline;fill:none;stroke:#000000;stroke-width:0.37018892;stroke-linecap:butt;stroke-linejoin:miter;stroke-opacity:1" />
  </g>
  <g
     id="g846"
     inkscape:groupmode="layer"
     inkscape:label="circle-wide"
     style="display:none">
    <path
       inkscape:connector-curvature="0"
       style="display:inline;fill:none;stroke:#000000;stroke-width:0.37018892;stroke-linecap:butt;stroke-linejoin:miter;stroke-opacity:1"
       d="M 500,0 C 367,0 240,53 146,146 C 53,240 0,367 0,500 C 0,633 53,760 146,854 C 240,948 367,1000 500,1000 C 633,1000 760,947 854,854 C 947,760 1000,633 1000,500 C 1000,367 947,240 854,146 C 760,53 633,0 500,0 C 500,0 500,0 500,0 M 500,150 C 693,150 850,307 850,500 C 850,693 693,850 500,850 C 307,850 150,693 150,500 C 150,307 307,150 500,150 C 500,150 500,150 500,150"
       id="path844" />
  </g>
  <g
     style="display:none"
     inkscape:label="square-thin"
     inkscape:groupmode="layer"
     id="g850">
    <path
       id="path848"
       d="M 100,0 C 50,0 0,50 0,100 C 0,100 0,900 0,900 C 0,950 50,1000 100,1000 C 100,1000 900,1000 900,1000 C 100,1000 900,1000 900,1000 C 950,1000 1000,950 1000,900 C 1000,900 1000,100 1000,100 C 1000,50 950,0 900,0 C 900,0 100,0 100,0 C 100,0 100,0 100,0 M 100,50 C 100,50 900,50 900,50 C 925,50 950,75 950,100 C 950,100 950,900 950,900 C 950,927 927,950 900,950 C 900,950 100,950 100,950 C 75,950 50,925 50,900 C 50,900 50,100 50,100 C 50,75 75,50 100,50 C 100,50 100,50 100,50"
       style="display:inline;fill:none;stroke:#000000;stroke-width:0.37018892;stroke-linecap:butt;stroke-linejoin:miter;stroke-opacity:1"
       inkscape:connector-curvature="0" />
  </g>
  <g
     id="g854"
     inkscape:groupmode="layer"
     inkscape:label="square-normal"
     style="display:none">
    <path
       style="stroke-linejoin:miter;stroke-opacity:1;stroke:#000000;stroke-linecap:butt;stroke-width:0.370188933945;display:inline;fill:none"
       d="M150.0 0.0C67.0 0.0 0.0 67.0 0.0 150.0C0.0 150.0 0.0 850.0 0.0 850.0C0.0 933.0 67.0 1000.0 150.0 1000.0C150.0 1000.0 850.0 1000.0 850.0 1000.0C933.0 1000.0 1000.0 933.0 1000.0 850.0C1000.0 850.0 1000.0 150.0 1000.0 150.0C1000.0 67.0 933.0 0.0 850.0 0.0C850.0 0.0 150.0 0.0 150.0 0.0C150.0 0.0 150.0 0.0 150.0 0.0M150.0 100.0C150.0 100.0 850.0 100.0 850.0 100.0C878.0 100.0 900.0 122.0 900.0 150.0C900.0 150.0 900.0 850.0 900.0 850.0C900.0 878.0 878.0 900.0 850.0 900.0C850.0 900.0 150.0 900.0 150.0 900.0C122.0 900.0 100.0 878.0 100.0 850.0C100.0 850.0 100.0 150.0 100.0 150.0C100.0 122.0 122.0 100.0 150.0 100.0C150.0 100.0 150.0 100.0 150.0 100.0"
       id="path852" />
  </g>
  <g
     style="display:none"
     inkscape:label="square-wide"
     inkscape:groupmode="layer"
     id="g858">
    <path
       inkscape:connector-curvature="0"
       id="path856"
       d="M 200,0 C 89,0 0,89 0,200 C 0,200 0,800 0,800 C 0,911 89,1000 200,1000 C 200,1000 800,1000 800,1000 C 911,1000 1000,911 1000,800 C 1000,800 1000,200 1000,200 C 1000,89 911,0 800,0 C 800,0 200,0 200,0 C 200,0 200,0 200,0 M 200,150 C 200,150 800,150 800,150 C 828,150 850,172 850,200 C 850,200 850,800 850,800 C 850,828 828,850 800,850 C 800,850 200,850 200,850 C 172,850 150,828 150,800 C 150,800 150,200 150,200 C 150,172 172,150 200,150 C 200,150 200,150 200,150"
       style="display:inline;fill:none;stroke:#000000;stroke-width:0.37018892;stroke-linecap:butt;stroke-linejoin:miter;stroke-opacity:1" />
  </g>
  <g
     id="g862"
     inkscape:groupmode="layer"
     inkscape:label="hexagon-thin"
     style="display:none">
    <path
       style="stroke-linejoin:miter;stroke-opacity:1;stroke:#000000;stroke-linecap:butt;stroke-width:0.370188933945;display:inline;fill:none"
       d="M300.0 54.0C265.0 54.0 231.0 74.0 213.0 104.0C213.0 104.0 13.0 450.0 13.0 450.0C13.0 450.0 13.0 450.0 13.0 450.0C-4.0 480.0 -4.0 520.0 13.0 550.0C13.0 550.0 13.0 550.0 13.0 550.0C13.0 550.0 213.0 896.0 213.0 896.0C230.0 926.0 265.0 946.0 300.0 946.0C300.0 946.0 700.0 946.0 700.0 946.0C735.0 946.0 769.0 926.0 787.0 896.0C787.0 896.0 987.0 550.0 987.0 550.0C987.0 550.0 987.0 550.0 987.0 550.0C1004.0 520.0 1004.0 480.0 987.0 450.0C987.0 450.0 987.0 450.0 987.0 450.0C987.0 450.0 787.0 104.0 787.0 104.0C770.0 74.0 735.0 54.0 700.0 54.0C700.0 54.0 300.0 54.0 300.0 54.0C300.0 54.0 300.0 54.0 300.0 54.0M300.0 104.0C300.0 104.0 700.0 104.0 700.0 104.0C718.0 104.0 734.0 114.0 743.0 129.0C743.0 129.0 943.0 475.0 943.0 475.0C952.0 490.0 952.0 510.0 943.0 525.0C943.0 525.0 743.0 871.0 743.0 871.0C734.0 886.0 718.0 896.0 700.0 896.0C700.0 896.0 300.0 896.0 300.0 896.0C282.0 896.0 266.0 886.0 257.0 871.0C257.0 871.0 57.0 525.0 57.0 525.0C48.0 510.0 48.0 490.0 57.0 475.0C57.0 475.0 257.0 129.0 257.0 129.0C266.0 114.0 282.0 104.0 300.0 104.0C300.0 104.0 300.0 104.0 300.0 104.0"
       id="path860" />
  </g>
  <g
     style="display:none"
     inkscape:label="hexagon-normal"
     inkscape:groupmode="layer"
     id="g866">
    <path
       id="path864"
       d="M325.0 47.0C271.0 47.0 222.0 76.0 195.0 122.0C195.0 122.0 20.0 425.0 20.0 425.0C-7.0 471.0 -7.0 529.0 20.0 575.0C20.0 575.0 195.0 878.0 195.0 878.0C222.0 924.0 271.0 953.0 325.0 953.0C325.0 953.0 675.0 953.0 675.0 953.0C729.0 953.0 778.0 924.0 805.0 878.0C805.0 878.0 980.0 575.0 980.0 575.0C1007.0 529.0 1007.0 471.0 980.0 425.0C980.0 425.0 805.0 122.0 805.0 122.0C778.0 76.0 729.0 47.0 675.0 47.0C675.0 47.0 325.0 47.0 325.0 47.0C325.0 47.0 325.0 47.0 325.0 47.0M325.0 147.0C325.0 147.0 675.0 147.0 675.0 147.0C693.0 147.0 709.0 157.0 718.0 172.0C718.0 172.0 893.0 475.0 893.0 475.0C902.0 490.0 902.0 510.0 893.0 525.0C893.0 525.0 718.0 828.0 718.0 828.0C709.0 843.0 693.0 853.0 675.0 853.0C675.0 853.0 325.0 853.0 325.0 853.0C307.0 853.0 291.0 843.0 282.0 828.0C282.0 828.0 107.0 525.0 107.0 525.0C98.0 510.0 98.0 490.0 107.0 475.0C107.0 475.0 282.0 172.0 282.0 172.0C291.0 157.0 307.0 147.0 325.0 147.0C325.0 147.0 325.0 147.0 325.0 147.0"
       style="stroke-linejoin:miter;stroke-opacity:1;stroke:#000000;stroke-linecap:butt;stroke-width:0.370188933945;display:inline;fill:none" />
  </g>
  <g
     id="g870"
     inkscape:groupmode="layer"
     inkscape:label="hexagon-wide"
     style="display:none">
    <path
       style="stroke-linejoin:miter;stroke-opacity:1;stroke:#000000;stroke-linecap:butt;stroke-width:0.370188933945;display:inline;fill:none"
       d="M350.0 40.0C279.0 40.0 213.0 78.0 177.0 140.0C177.0 140.0 27.0 400.0 27.0 400.0C-9.0 462.0 -9.0 538.0 27.0 600.0C27.0 600.0 177.0 860.0 177.0 860.0C213.0 922.0 279.0 960.0 350.0 960.0C350.0 960.0 650.0 960.0 650.0 960.0C721.0 960.0 787.0 922.0 823.0 860.0C823.0 860.0 973.0 600.0 973.0 600.0C1009.0 538.0 1009.0 462.0 973.0 400.0C973.0 400.0 823.0 140.0 823.0 140.0C787.0 78.0 721.0 40.0 650.0 40.0C650.0 40.0 350.0 40.0 350.0 40.0C350.0 40.0 350.0 40.0 350.0 40.0M350.0 190.0C350.0 190.0 650.0 190.0 650.0 190.0C668.0 190.0 684.0 200.0 693.0 215.0C693.0 215.0 843.0 475.0 843.0 475.0C852.0 490.0 852.0 510.0 843.0 525.0C843.0 525.0 693.0 785.0 693.0 785.0C684.0 800.0 668.0 810.0 650.0 810.0C650.0 810.0 350.0 810.0 350.0 810.0C332.0 810.0 316.0 800.0 307.0 785.0C307.0 785.0 157.0 525.0 157.0 525.0C148.0 510.0 148.0 490.0 157.0 475.0C157.0 475.0 307.0 215.0 307.0 215.0C316.0 200.0 332.0 190.0 350.0 190.0C350.0 190.0 350.0 190.0 350.0 190.0"
       id="path868" />
  </g>
  <g
     style="display:none"
     inkscape:label="octagon-thin"
     inkscape:groupmode="layer"
     id="g874">
    <path
       id="path872"
       d="M333.0 1.0C308.0 1.0 283.0 11.0 266.0 29.0C266.0 29.0 30.0 265.0 30.0 265.0C12.0 283.0 2.0 307.0 2.0 332.0C2.0 332.0 2.0 666.0 2.0 666.0C2.0 691.0 12.0 716.0 30.0 733.0C30.0 733.0 266.0 969.0 266.0 969.0C284.0 987.0 308.0 997.0 333.0 997.0C333.0 997.0 667.0 997.0 667.0 997.0C692.0 997.0 717.0 987.0 734.0 969.0C734.0 969.0 970.0 733.0 970.0 733.0C988.0 715.0 998.0 691.0 998.0 666.0C998.0 666.0 998.0 332.0 998.0 332.0C998.0 307.0 988.0 282.0 970.0 265.0C970.0 265.0 734.0 29.0 734.0 29.0C716.0 11.0 692.0 1.0 667.0 1.0C667.0 1.0 333.0 1.0 333.0 1.0M333.0 48.0C333.0 48.0 667.0 48.0 667.0 48.0C680.0 48.0 692.0 53.0 701.0 62.0C701.0 62.0 937.0 298.0 937.0 298.0C946.0 307.0 951.0 319.0 951.0 332.0C951.0 332.0 951.0 666.0 951.0 666.0C951.0 679.0 946.0 691.0 937.0 700.0C937.0 700.0 701.0 936.0 701.0 936.0C692.0 945.0 680.0 950.0 667.0 950.0C667.0 950.0 333.0 950.0 333.0 950.0C320.0 950.0 308.0 945.0 299.0 936.0C299.0 936.0 63.0 700.0 63.0 700.0C54.0 691.0 49.0 679.0 49.0 666.0C49.0 666.0 49.0 332.0 49.0 332.0C49.0 319.0 54.0 307.0 63.0 298.0C63.0 298.0 299.0 62.0 299.0 62.0C308.0 53.0 320.0 48.0 333.0 48.0C333.0 48.0 333.0 48.0 333.0 48.0"
       style="stroke-linejoin:miter;stroke-opacity:1;stroke:#000000;stroke-linecap:butt;stroke-width:0.370188933945;display:inline;fill:none" />
  </g>
  <g
     id="g878"
     inkscape:groupmode="layer"
     inkscape:label="octagon-normal"
     style="display:none">
    <path
       style="stroke-linejoin:miter;stroke-opacity:1;stroke:#000000;stroke-linecap:butt;stroke-width:0.370188933945;display:inline;fill:none"
       d="M354.0 0.0C315.0 0.0 277.0 16.0 249.0 43.0C249.0 43.0 43.0 249.0 43.0 249.0C16.0 277.0 0.0 315.0 0.0 354.0C0.0 354.0 0.0 645.0 0.0 645.0C0.0 684.0 16.0 722.0 43.0 750.0C43.0 750.0 249.0 956.0 249.0 956.0C277.0 984.0 314.0 999.0 354.0 999.0C354.0 999.0 645.0 999.0 645.0 999.0C684.0 999.0 722.0 983.0 750.0 956.0C750.0 956.0 956.0 750.0 956.0 750.0C984.0 722.0 999.0 685.0 999.0 645.0C999.0 645.0 999.0 354.0 999.0 354.0C999.0 315.0 983.0 277.0 956.0 249.0C956.0 249.0 750.0 43.0 750.0 43.0C723.0 16.0 685.0 0.0 646.0 0.0C646.0 0.0 355.0 0.0 355.0 0.0M355.0 100.0C355.0 100.0 646.0 100.0 646.0 100.0C659.0 100.0 671.0 105.0 680.0 114.0C680.0 114.0 886.0 320.0 886.0 320.0C895.0 329.0 900.0 341.0 900.0 354.0C900.0 354.0 900.0 645.0 900.0 645.0C900.0 658.0 895.0 670.0 886.0 679.0C886.0 679.0 680.0 885.0 680.0 885.0C671.0 894.0 659.0 899.0 646.0 899.0C646.0 899.0 355.0 899.0 355.0 899.0C342.0 899.0 330.0 894.0 321.0 885.0C321.0 885.0 115.0 679.0 115.0 679.0C106.0 670.0 101.0 658.0 101.0 645.0C101.0 645.0 101.0 354.0 101.0 354.0C101.0 341.0 106.0 329.0 115.0 320.0C115.0 320.0 321.0 114.0 321.0 114.0C330.0 105.0 342.0 100.0 355.0 100.0C355.0 100.0 355.0 100.0 355.0 100.0"
       id="path876" />
  </g>
  <g
     style="display:none"
     inkscape:label="octagon-wide"
     inkscape:groupmode="layer"
     id="g882">
    <path
       id="path880"
       d="M623.0 0.0C623.0 0.0 374.0 1.0 374.0 1.0C321.0 1.0 270.0 22.0 233.0 60.0C233.0 60.0 57.0 236.0 57.0 236.0C20.0 274.0 -1.0 324.0 -1.0 377.0C-1.0 377.0 0.0 626.0 0.0 626.0C0.0 679.0 21.0 730.0 59.0 767.0C59.0 767.0 235.0 943.0 235.0 943.0C273.0 980.0 323.0 1001.0 376.0 1001.0C376.0 1001.0 625.0 1000.0 625.0 1000.0C678.0 1000.0 729.0 979.0 766.0 941.0C766.0 941.0 942.0 765.0 942.0 765.0C979.0 727.0 1000.0 677.0 1000.0 624.0C1000.0 624.0 999.0 375.0 999.0 375.0C999.0 322.0 978.0 271.0 940.0 234.0C940.0 234.0 764.0 58.0 764.0 58.0C726.0 21.0 676.0 0.0 623.0 0.0C623.0 0.0 623.0 0.0 623.0 0.0M623.0 150.0C636.0 150.0 649.0 155.0 658.0 164.0C658.0 164.0 834.0 340.0 834.0 340.0C843.0 349.0 849.0 362.0 849.0 375.0C849.0 375.0 850.0 624.0 850.0 624.0C850.0 637.0 845.0 650.0 836.0 659.0C836.0 659.0 660.0 835.0 660.0 835.0C651.0 844.0 638.0 850.0 625.0 850.0C625.0 850.0 376.0 851.0 376.0 851.0C363.0 851.0 350.0 846.0 341.0 837.0C341.0 837.0 165.0 661.0 165.0 661.0C156.0 652.0 150.0 639.0 150.0 626.0C150.0 626.0 149.0 377.0 149.0 377.0C149.0 364.0 154.0 351.0 163.0 342.0C163.0 342.0 339.0 166.0 339.0 166.0C348.0 157.0 361.0 151.0 374.0 151.0C374.0 151.0 623.0 150.0 623.0 150.0"
       style="stroke-linejoin:miter;stroke-opacity:1;stroke:#000000;stroke-linecap:butt;stroke-width:0.370188933945;display:inline;fill:none" />
  </g>
  <g
     style="display:inline"
     inkscape:groupmode="layer"
     id="layer4"
     inkscape:label="main-layer">
    <path
       style="fill:url(#linearGradient1283);fill-opacity:1;stroke:#001ce5;stroke-width:0;stroke-miterlimit:4;stroke-dasharray:none;stroke-opacity:1"
       d="M 694.81067,374.78423 L 694.87014,374.75401 C 804.53935,431.61616 893.08683,530.93575 890.60486,660.00288 C 887.60937,816.8807 741.44394,918.76967 600,950 C 600,850 625,850 700,800 C 775,750 725.29443,669.18232 675,625 C 496.44488,762.16964 325,825 450,375 C 332.47479,477.82192 177.32047,725.79896 350,775 C 500,800 484.34526,933.98399 500,950 C 375,950 177.1005,937.36695 120.31823,745.82579 C 89.511148,631.85936 131.45389,516.9548 199.90666,425.62425 C 234.13244,379.98932 274.16968,339.01468 315.80936,300.12805 C 354.54499,263.93487 397.27463,230.64669 432.37886,190.79177 C 468.57193,149.66577 513.84416,76.159547 479.49712,20.568343 C 541.89711,67.171783 592.19156,145.06592 583.77923,225.29036 C 577.06078,289.29427 529.03552,354.44819 576.09316,414.91159 C 605.41683,452.55735 664.85106,444.59852 686.63967,408.13287 C 686.0761,408.79724 685.48025,409.43353 684.85426,410.03941 C 688.54632,404.13831 691.29934,397.66222 692.96464,390.70202 C 692.95113,391.67277 692.89044,392.64229 692.7828,393.60715 C 694.17474,388.37184 694.90104,382.71284 694.84041,376.72106 C 694.75005,381.56291 694.02374,386.19298 692.96464,390.70202 C 693.05501,385.16404 692.08623,378.93011 689.05985,371.63707 C 691.08771,372.69617 692.81254,373.75531 694.81067,374.78423"
       id="path2069"
       inkscape:connector-curvature="0"
       sodipodi:nodetypes="cccccccccccccccccccccccc" />
    <flowRoot
       xml:space="preserve"
       id="flowRoot986"
       style="font-style:normal;font-variant:normal;font-weight:normal;font-stretch:normal;font-size:40px;line-height:1.25;font-family:OpenSymbol;-inkscape-font-specification:OpenSymbol;letter-spacing:0px;word-spacing:0px;fill:#ffffff;fill-opacity:1;stroke:none;"
       transform="scale(0.26458333)"><flowRegion
         id="flowRegion988"
         style="fill:#ffffff;"><rect
           id="rect990"
           width="94.48822"
           height="94.488152"
           x="377.95276"
           y="1133.8583"
           style="fill:#ffffff" /></flowRegion><flowPara
         id="flowPara992"
         style="font-size:192.00000242px;-inkscape-font-specification:Chilanka;font-family:Chilanka;font-weight:normal;font-style:normal;font-stretch:normal;font-variant:normal;fill:#ffffff;">4</flowPara></flowRoot>    <text
       xml:space="preserve"
       style="font-style:normal;font-variant:normal;font-weight:normal;font-stretch:normal;font-size:10.58333302px;line-height:1.25;font-family:OpenSymbol;-inkscape-font-specification:OpenSymbol;letter-spacing:0px;word-spacing:0px;fill:#000000;fill-opacity:1;stroke:none;stroke-width:0.26458332"
       x="100"
       y="300"
       id="text996"><tspan
         sodipodi:role="line"
         id="tspan994"
         x="100"
         y="300"
         style="stroke-width:0.26458332">4</tspan></text>
  </g>
</svg>
